# xmcd
#
# Track frame offsets: 
#        150
#        18128
#        42441
#        57710
#        72939
#        89451
#        105939
#        120944
#        141529
#        155274
#        170042
#        184244
#
# Disc length: 2610 seconds
#
# Revision: 2
# Processed by: cddbd v1.5.1PL2 Copyright (c) Steve Scherf et al.
# Submitted via: ExactAudioCopy v0.95b3
#
DISCID=a30a300c
DTITLE=Roland Van Campenhout - Lime and Coconut
DYEAR=2003
DGENRE=Blues
TTITLE0=Going Down Slow
TTITLE1=Lime In The Coconut
TTITLE2=The Spider And The Fly
TTITLE3=Blues Wearing High Heels Shoes
TTITLE4=Rubber Burning
TTITLE5=That's Amore
TTITLE6=Good Times, Bad Times
TTITLE7=Kosher Kamasutra
TTITLE8=Alberta
TTITLE9=Bird In My Pyjamas
TTITLE10=Baby Call My Name
TTITLE11=Do It!
EXTD=YEAR: 2003
EXTT0=
EXTT1=
EXTT2=
EXTT3=
EXTT4=
EXTT5=
EXTT6=
EXTT7=
EXTT8=
EXTT9=
EXTT10=
EXTT11=
PLAYORDER=
